<?xml version="1.0" encoding="utf-8"?>
<!-- Generator: Adobe Illustrator 16.0.0, SVG Export Plug-In . SVG Version: 6.00 Build 0)  -->
<!DOCTYPE svg PUBLIC "-//W3C//DTD SVG 1.1//EN" "http://www.w3.org/Graphics/SVG/1.1/DTD/svg11.dtd">
<svg version="1.1" id="Layer_1" xmlns="http://www.w3.org/2000/svg" xmlns:xlink="http://www.w3.org/1999/xlink" x="0px" y="0px"
	 width="617.072px" height="245.072px" viewBox="0 0 617.072 245.072" enable-background="new 0 0 617.072 245.072"
	 xml:space="preserve">
<rect x="505.541" y="-226.009" fill="none" width="130.111" height="130.111"/>
<rect x="40.536" y="305.352" fill="none" width="536" height="244"/>
<g>
	<path d="M410.324,421.483h-15.636l20.617,39.318h8.891l20.541-39.318h-15.636l-9.351,20.158L410.324,421.483z M384.264,398.567
		c-4.292,0-7.817,3.525-7.817,7.816c0,4.293,3.525,7.818,7.817,7.818s7.818-3.525,7.818-7.818
		C392.082,402.092,388.556,398.567,384.264,398.567z M391.238,421.483h-13.949v39.318h13.949V421.483z M364.949,432.979h7.895
		v-11.496h-7.895V409.68H351v11.803h-4.521v11.496H351v27.822h13.949V432.979z M340.421,421.483h-13.949v3.832
		c-2.912-3.449-7.664-5.135-12.187-5.135c-11.65,0-19.698,9.656-19.698,20.924s8.201,21,19.851,21c4.599,0,9.428-1.762,11.88-5.672
		h0.153v4.369h13.949V421.483z M317.964,432.29c5.672,0,8.968,4.062,8.968,8.891c0,4.982-3.296,8.814-8.968,8.814
		s-8.967-3.832-8.967-8.814C308.997,436.352,312.292,432.29,317.964,432.29z M276.652,421.483h-13.949v39.318h13.949v-15.865
		c0-6.744,1.917-11.879,9.658-11.879c2.146,0,3.985,0.229,5.901,1.303v-13.414h-2.683c-5.442,0-10.041,2.146-12.723,6.975h-0.153
		V421.483z M211.961,421.483v23.684c0,12.953,9.121,16.938,20.924,16.938c11.803,0,20.924-3.984,20.924-16.938v-23.684H239.86v21
		c0,4.982-1.227,8.508-6.975,8.508c-5.749,0-6.975-3.525-6.975-8.508v-21H211.961z M203.53,422.479
		c-2.759-1.533-5.979-2.299-9.198-2.299c-12.34,0-21.997,8.738-21.997,21.383c0,11.881,9.734,20.541,21.384,20.541
		c3.372,0,6.745-0.689,9.811-2.223v-11.803c-1.84,1.686-4.522,2.684-6.975,2.684c-5.748,0-9.811-3.986-9.811-9.658
		c0-5.441,4.216-9.58,9.581-9.58c2.682,0,5.135,1.227,7.205,2.758V422.479z"/>
	<circle cx="353.134" cy="502.504" r="11.297"/>
	<circle cx="308.538" cy="502.504" r="11.298"/>
	<circle cx="263.941" cy="502.504" r="11.299"/>
	<circle cx="397.729" cy="502.503" r="11.298"/>
	<circle cx="219.344" cy="502.504" r="11.298"/>
	<path d="M317.347,369.381c0.409-4.456,4.404-8.246,9.22-8.246c4.866,0,8.451,3.893,9.016,8.246H317.347z M337.887,371.534
		c0.051-6.812-4.2-12.551-11.372-12.551c-6.914,0-11.474,5.687-11.474,12.295c0,6.709,4.456,12.396,11.474,12.396
		c4.661,0,8.452-2.306,10.604-6.403l-1.947-1.127c-1.69,3.176-4.661,5.379-8.35,5.379c-5.481,0-9.63-3.996-9.476-9.988H337.887z
		 M292.247,340.901v42.26h2.305v-11.679c0-4.815,0.973-10.347,6.915-10.347c5.173,0,5.686,3.482,5.686,7.734v14.291h2.305V368.87
		c0-6.096-1.69-9.887-7.786-9.887c-3.074,0-5.635,1.588-7.018,4.201h-0.102v-22.283H292.247z M284.103,361.647h4.149v-2.151h-4.149
		v-8.452h-2.305v8.452h-2.612v2.151h2.612v21.514h2.305V361.647z"/>
	<polygon points="197.206,500.507 102.866,500.507 102.866,371.467 256.606,371.467 256.606,367.467 98.866,367.467 98.866,504.507 
		197.206,504.507 	"/>
	<polygon points="362.468,371.467 514.206,371.467 514.206,500.507 419.866,500.507 419.866,504.507 518.206,504.507 
		518.206,367.467 362.468,367.467 	"/>
	<polygon points="372.638,357.294 372.638,381.64 360.466,369.469 	"/>
</g>
<g>
	<path d="M336.427-199.089c-5.734-3.186-12.422-4.776-19.111-4.776c-25.64,0-45.705,18.156-45.705,44.428
		c0,24.686,20.225,42.679,44.433,42.679c7.007,0,14.013-1.432,20.384-4.618v-24.523c-3.822,3.502-9.396,5.576-14.494,5.576
		c-11.942,0-20.383-8.282-20.383-20.067c0-11.306,8.759-19.905,19.907-19.905c5.574,0,10.669,2.548,14.971,5.729V-199.089z"/>
	<circle cx="340.134" cy="-94.945" r="6.798"/>
	<circle cx="308.537" cy="-94.945" r="6.799"/>
	<circle cx="276.939" cy="-94.945" r="6.799"/>
	<circle cx="371.731" cy="-94.946" r="6.799"/>
	<circle cx="245.342" cy="-94.945" r="6.799"/>
	<polygon points="242.974,-106.95 242.976,-106.95 242.976,-225.982 306.645,-225.982 306.645,-229.982 238.976,-229.982 
		238.976,-106.954 242.974,-106.954 	"/>
	<polygon points="312.429,-225.982 374.097,-225.982 374.097,-106.95 374.083,-106.95 374.083,-106.954 378.097,-106.954 
		378.097,-229.982 312.429,-229.982 	"/>
	<polygon points="322.599,-240.155 322.599,-215.809 310.427,-227.98 	"/>
</g>
<g>
	<path d="M718.179-170.779c-1.088-0.604-2.356-0.906-3.626-0.906c-4.864,0-8.672,3.445-8.672,8.429c0,4.684,3.838,8.098,8.431,8.098
		c1.329,0,2.658-0.272,3.867-0.876v-4.652c-0.725,0.664-1.783,1.058-2.75,1.058c-2.266,0-3.867-1.571-3.867-3.807
		c0-2.145,1.662-3.777,3.777-3.777c1.057,0,2.023,0.483,2.84,1.087V-170.779z"/>
	<circle cx="718.882" cy="-151.021" r="1.29"/>
	<circle cx="712.887" cy="-151.021" r="1.29"/>
	<circle cx="706.893" cy="-151.021" r="1.29"/>
	<circle cx="724.877" cy="-151.021" r="1.29"/>
	<circle cx="700.897" cy="-151.021" r="1.29"/>
	<polygon points="700.448,-153.298 700.448,-153.298 700.448,-175.882 712.528,-175.882 712.528,-176.641 699.689,-176.641 
		699.689,-153.299 700.448,-153.299 	"/>
	<polygon points="713.626,-175.882 725.326,-175.882 725.326,-153.298 725.323,-153.298 725.323,-153.299 726.085,-153.299 
		726.085,-176.641 713.626,-176.641 	"/>
	<polygon points="715.556,-178.571 715.556,-173.952 713.246,-176.261 	"/>
</g>
<g>
	<path d="M594.311-190.656c-4.878-2.709-10.56-4.062-16.251-4.062c-21.794,0-38.854,15.435-38.854,37.771
		c0,20.987,17.193,36.283,37.777,36.283c5.954,0,11.914-1.216,17.327-3.925v-20.849c-3.25,2.978-7.989,4.741-12.321,4.741
		c-10.152,0-17.332-7.041-17.332-17.062c0-9.612,7.447-16.921,16.926-16.921c4.738,0,9.07,2.166,12.728,4.87V-190.656z"/>
	<path d="M584.382-102.117c0,3.191,2.584,5.778,5.78,5.778c3.19,0,5.776-2.587,5.776-5.778c0-3.192-2.586-5.78-5.776-5.78
		C586.966-107.897,584.382-105.309,584.382-102.117z"/>
	<circle cx="570.601" cy="-102.117" r="5.781"/>
	<circle cx="551.04" cy="-102.117" r="5.781"/>
	<path d="M603.938-102.119c0,3.193,2.586,5.78,5.775,5.78c3.196,0,5.781-2.587,5.781-5.78c0-3.19-2.585-5.781-5.781-5.781
		C606.524-107.9,603.938-105.309,603.938-102.119z"/>
	<path d="M525.697-102.117c0,3.191,2.585,5.778,5.775,5.778c3.195,0,5.786-2.587,5.786-5.778c0-3.192-2.591-5.78-5.786-5.78
		C528.282-107.897,525.697-105.309,525.697-102.117z"/>
	<polygon points="521.913,-103.816 514.862,-103.816 514.862,-213.521 563.902,-213.521 563.902,-216.92 511.458,-216.92 
		511.458,-100.415 521.913,-100.415 	"/>
	<polygon points="578.993,-213.521 626.337,-213.521 626.337,-103.816 619.285,-103.816 619.285,-100.415 629.735,-100.415 
		629.735,-216.92 578.993,-216.92 	"/>
	<polygon points="587.642,-225.569 587.642,-204.873 577.29,-215.218 	"/>
</g>
<path d="M410.324,116.667h-15.636l20.617,39.318h8.891l20.541-39.318h-15.636l-9.351,20.158L410.324,116.667z M384.264,93.751
	c-4.292,0-7.817,3.525-7.817,7.816c0,4.293,3.525,7.818,7.817,7.818s7.818-3.525,7.818-7.818
	C392.082,97.276,388.556,93.751,384.264,93.751z M391.238,116.667h-13.949v39.318h13.949V116.667z M364.949,128.163h7.895v-11.496
	h-7.895v-11.803H351v11.803h-4.521v11.496H351v27.822h13.949V128.163z M340.421,116.667h-13.949v3.832
	c-2.912-3.449-7.664-5.135-12.187-5.135c-11.65,0-19.697,9.656-19.697,20.924s8.201,21,19.851,21c4.599,0,9.428-1.762,11.88-5.672
	h0.153v4.369h13.949V116.667z M317.964,127.474c5.672,0,8.968,4.062,8.968,8.891c0,4.982-3.296,8.814-8.968,8.814
	s-8.967-3.832-8.967-8.814C308.997,131.536,312.292,127.474,317.964,127.474z M276.652,116.667h-13.949v39.318h13.949V140.12
	c0-6.744,1.916-11.879,9.657-11.879c2.146,0,3.985,0.229,5.901,1.303V116.13h-2.683c-5.442,0-10.04,2.146-12.724,6.975h-0.152
	V116.667z M211.961,116.667v23.684c0,12.953,9.121,16.938,20.925,16.938s20.924-3.984,20.924-16.938v-23.684H239.86v21
	c0,4.982-1.227,8.508-6.975,8.508c-5.749,0-6.975-3.525-6.975-8.508v-21H211.961z M203.529,117.663
	c-2.759-1.533-5.979-2.299-9.197-2.299c-12.34,0-21.997,8.738-21.997,21.383c0,11.881,9.733,20.541,21.384,20.541
	c3.373,0,6.745-0.689,9.811-2.223v-11.803c-1.84,1.686-4.521,2.684-6.975,2.684c-5.748,0-9.811-3.986-9.811-9.658
	c0-5.441,4.216-9.58,9.581-9.58c2.683,0,5.135,1.227,7.204,2.758V117.663z"/>
<circle cx="353.134" cy="197.688" r="11.297"/>
<circle cx="308.538" cy="197.688" r="11.298"/>
<circle cx="263.941" cy="197.688" r="11.299"/>
<circle cx="397.729" cy="197.688" r="11.298"/>
<circle cx="219.344" cy="197.688" r="11.298"/>
<path d="M317.347,64.565c0.409-4.456,4.404-8.246,9.22-8.246c4.866,0,8.451,3.893,9.016,8.246H317.347z M337.887,66.718
	c0.051-6.812-4.2-12.551-11.372-12.551c-6.914,0-11.474,5.687-11.474,12.295c0,6.709,4.456,12.396,11.474,12.396
	c4.661,0,8.452-2.306,10.604-6.403l-1.947-1.127c-1.69,3.176-4.661,5.379-8.35,5.379c-5.481,0-9.63-3.996-9.476-9.988H337.887z
	 M292.247,36.085v42.26h2.306V66.666c0-4.815,0.973-10.347,6.914-10.347c5.174,0,5.687,3.482,5.687,7.734v14.291h2.305V64.054
	c0-6.096-1.69-9.887-7.786-9.887c-3.073,0-5.635,1.588-7.018,4.201h-0.102V36.085H292.247z M284.103,56.831h4.149V54.68h-4.149
	v-8.452h-2.306v8.452h-2.611v2.151h2.611v21.514h2.306V56.831z"/>
<polygon points="197.206,195.691 102.866,195.691 102.866,66.651 256.605,66.651 256.605,62.651 98.866,62.651 98.866,199.691 
	197.206,199.691 "/>
<polygon points="362.468,66.651 514.206,66.651 514.206,195.691 419.866,195.691 419.866,199.691 518.206,199.691 518.206,62.651 
	362.468,62.651 "/>
<polygon points="372.638,52.479 372.638,76.824 360.466,64.653 "/>
<path fill="#9C1D20" d="M573.602,83.603c-0.45-0.153-0.851-0.377-1.201-0.672c-0.352-0.296-0.631-0.646-0.84-1.05
	c-0.208-0.404-0.312-0.868-0.312-1.393c0-0.809,0.247-1.443,0.741-1.902c0.493-0.458,1.124-0.808,1.893-1.049
	c0.768-0.24,1.618-0.42,2.551-0.54c0.933-0.121,1.838-0.257,2.716-0.41c0.285-0.044,0.614-0.12,0.987-0.229s0.625-0.284,0.757-0.524
	h0.066v2.688c0,0.831-0.16,1.574-0.478,2.229c-0.318,0.656-0.746,1.214-1.284,1.672c-0.538,0.459-1.168,0.809-1.893,1.049
	c-0.724,0.241-1.481,0.36-2.271,0.36C574.528,83.832,574.051,83.755,573.602,83.603z M577.009,85.346
	c0.614-0.154,1.157-0.373,1.629-0.658s0.899-0.642,1.284-1.07c0.384-0.428,0.762-0.916,1.136-1.465h0.065
	c0,0.439,0.027,0.84,0.082,1.202c0.055,0.361,0.17,0.675,0.346,0.938c0.176,0.264,0.423,0.467,0.741,0.609
	c0.317,0.143,0.74,0.214,1.268,0.214c0.284,0,0.521-0.011,0.707-0.033c0.187-0.021,0.4-0.055,0.642-0.099V83.24
	c-0.176,0.088-0.395,0.132-0.658,0.132c-0.812,0-1.218-0.417-1.218-1.251v-9.02c0-1.141-0.187-2.068-0.56-2.781
	s-0.855-1.268-1.448-1.662c-0.593-0.396-1.262-0.664-2.008-0.807s-1.492-0.214-2.238-0.214c-1.976,0-3.583,0.45-4.822,1.35
	c-1.24,0.899-1.926,2.348-2.058,4.345h2.074c0.043-1.383,0.482-2.387,1.316-3.012c0.834-0.626,1.909-0.938,3.226-0.938
	c0.614,0,1.19,0.05,1.729,0.148c0.537,0.099,1.009,0.279,1.415,0.543s0.725,0.62,0.955,1.069c0.23,0.45,0.346,1.026,0.346,1.729
	c0,0.461-0.061,0.834-0.182,1.119c-0.12,0.285-0.291,0.511-0.51,0.675c-0.22,0.165-0.5,0.28-0.84,0.346s-0.719,0.121-1.136,0.165
	c-1.119,0.131-2.222,0.269-3.308,0.411s-2.063,0.39-2.93,0.74c-0.867,0.352-1.563,0.861-2.09,1.531
	c-0.527,0.669-0.79,1.596-0.79,2.781c0,0.855,0.147,1.597,0.444,2.222c0.296,0.626,0.702,1.142,1.218,1.547
	c0.516,0.406,1.119,0.703,1.811,0.889c0.691,0.187,1.432,0.28,2.222,0.28C575.681,85.577,576.394,85.5,577.009,85.346z
	 M567.101,68.13v1.745h-3.456v11.455c0,0.68,0.093,1.213,0.28,1.596c0.186,0.385,0.652,0.599,1.398,0.643
	c0.593,0,1.186-0.033,1.777-0.099v1.744c-0.308,0-0.614,0.011-0.921,0.033c-0.308,0.021-0.615,0.033-0.922,0.033
	c-1.383,0-2.349-0.269-2.896-0.807c-0.549-0.538-0.812-1.531-0.79-2.979V69.875h-2.963V68.13h2.963v-5.102h2.073v5.102H567.101z
	 M544.487,75.438c0.087-0.768,0.268-1.52,0.543-2.255c0.273-0.734,0.642-1.382,1.103-1.941s1.021-1.01,1.679-1.35
	c0.658-0.341,1.415-0.511,2.271-0.511c0.833,0,1.58,0.17,2.238,0.511c0.658,0.34,1.218,0.79,1.679,1.35s0.817,1.201,1.069,1.925
	c0.252,0.725,0.39,1.481,0.412,2.271H544.487z M555.069,83.997c1.174-1.054,1.98-2.546,2.42-4.477h-2.074
	c-0.329,1.307-0.922,2.353-1.777,3.136c-0.855,0.784-2.041,1.176-3.555,1.176c-0.987,0-1.833-0.207-2.535-0.622
	c-0.702-0.414-1.283-0.938-1.744-1.572c-0.461-0.633-0.796-1.343-1.004-2.129c-0.209-0.786-0.312-1.562-0.312-2.325h13.067
	c0.044-1.186-0.065-2.354-0.329-3.506s-0.697-2.173-1.3-3.062c-0.604-0.889-1.389-1.607-2.354-2.156
	c-0.966-0.548-2.129-0.822-3.489-0.822c-1.361,0-2.524,0.258-3.489,0.773c-0.966,0.516-1.756,1.196-2.37,2.041
	s-1.07,1.805-1.366,2.88s-0.444,2.173-0.444,3.292c0,1.229,0.148,2.381,0.444,3.456s0.752,2.024,1.366,2.847
	c0.614,0.823,1.404,1.471,2.37,1.942c0.965,0.472,2.128,0.708,3.489,0.708C552.233,85.577,553.896,85.05,555.069,83.997z
	 M527.437,80.705V67.669c0-1.58,0.361-2.775,1.086-3.588c0.725-0.812,1.975-1.218,3.753-1.218c1.448,0,2.584,0.374,3.406,1.119
	c0.823,0.746,1.234,1.745,1.234,2.996c0,0.855-0.192,1.558-0.576,2.106s-0.883,0.982-1.497,1.3
	c-0.615,0.318-1.295,0.543-2.041,0.675s-1.481,0.197-2.205,0.197v1.745c1.009,0,1.969,0.065,2.88,0.197
	c0.91,0.132,1.706,0.39,2.387,0.773c0.68,0.385,1.223,0.928,1.629,1.63s0.609,1.624,0.609,2.765c0,0.966-0.154,1.777-0.461,2.436
	c-0.308,0.659-0.714,1.202-1.218,1.63c-0.506,0.428-1.087,0.735-1.745,0.922s-1.339,0.279-2.041,0.279
	c-1.339,0-2.469-0.34-3.39-1.021C528.588,82.11,527.984,81.473,527.437,80.705z M525.362,91.403h2.074V83.24l0.23,0.263
	c0.329,0.352,0.713,0.664,1.151,0.938c0.439,0.274,0.972,0.499,1.597,0.675c0.626,0.176,1.366,0.264,2.222,0.264
	c1.119,0,2.14-0.16,3.062-0.478c0.922-0.318,1.712-0.784,2.37-1.399c0.658-0.613,1.174-1.382,1.547-2.304s0.56-1.986,0.56-3.193
	c0-0.745-0.104-1.47-0.312-2.172c-0.209-0.702-0.521-1.333-0.938-1.893s-0.933-1.021-1.547-1.383s-1.316-0.576-2.106-0.642V71.85
	c1.185-0.264,2.101-0.855,2.748-1.777s0.972-1.975,0.972-3.16c0-0.943-0.165-1.771-0.494-2.485
	c-0.329-0.713-0.796-1.316-1.398-1.811c-0.604-0.493-1.317-0.866-2.14-1.119c-0.823-0.252-1.729-0.378-2.716-0.378
	c-2.129,0-3.808,0.521-5.036,1.563c-1.229,1.042-1.844,2.649-1.844,4.822V91.403z"/>
<rect x="734.239" y="0.536" fill="none" width="532.167" height="244"/>
<g>
	<path d="M1068.61,116.667h-15.635l20.617,39.318h8.891l20.541-39.318h-15.637l-9.35,20.158L1068.61,116.667z M1042.55,93.751
		c-4.291,0-7.816,3.525-7.816,7.816c0,4.293,3.525,7.818,7.816,7.818c4.293,0,7.818-3.525,7.818-7.818
		C1050.368,97.276,1046.843,93.751,1042.55,93.751z M1049.524,116.667h-13.949v39.318h13.949V116.667z M1023.235,128.163h7.895
		v-11.496h-7.895v-11.803h-13.949v11.803h-4.521v11.496h4.521v27.822h13.949V128.163z M998.708,116.667h-13.949v3.832
		c-2.912-3.449-7.664-5.135-12.188-5.135c-11.65,0-19.697,9.656-19.697,20.924s8.201,21,19.852,21c4.598,0,9.428-1.762,11.879-5.672
		h0.154v4.369h13.949V116.667z M976.251,127.474c5.672,0,8.967,4.062,8.967,8.891c0,4.982-3.295,8.814-8.967,8.814
		s-8.967-3.832-8.967-8.814C967.284,131.536,970.579,127.474,976.251,127.474z M934.938,116.667h-13.949v39.318h13.949V140.12
		c0-6.744,1.916-11.879,9.658-11.879c2.145,0,3.984,0.229,5.9,1.303V116.13h-2.682c-5.443,0-10.041,2.146-12.725,6.975h-0.152
		V116.667z M870.247,116.667v23.684c0,12.953,9.121,16.938,20.926,16.938c11.803,0,20.924-3.984,20.924-16.938v-23.684h-13.949v21
		c0,4.982-1.227,8.508-6.975,8.508c-5.75,0-6.975-3.525-6.975-8.508v-21H870.247z M861.815,117.663
		c-2.758-1.533-5.979-2.299-9.197-2.299c-12.34,0-21.996,8.738-21.996,21.383c0,11.881,9.732,20.541,21.383,20.541
		c3.373,0,6.746-0.689,9.811-2.223v-11.803c-1.84,1.686-4.521,2.684-6.975,2.684c-5.748,0-9.811-3.986-9.811-9.658
		c0-5.441,4.217-9.58,9.582-9.58c2.682,0,5.135,1.227,7.203,2.758V117.663z"/>
	<circle cx="1011.421" cy="197.688" r="11.297"/>
	<circle cx="966.824" cy="197.688" r="11.298"/>
	<circle cx="922.228" cy="197.688" r="11.299"/>
	<circle cx="1056.016" cy="197.688" r="11.298"/>
	<circle cx="877.631" cy="197.688" r="11.298"/>
	<path d="M975.634,64.565c0.408-4.456,4.404-8.246,9.219-8.246c4.867,0,8.451,3.893,9.016,8.246H975.634z M996.173,66.718
		c0.051-6.812-4.199-12.551-11.371-12.551c-6.914,0-11.475,5.687-11.475,12.295c0,6.709,4.457,12.396,11.475,12.396
		c4.66,0,8.451-2.306,10.604-6.403l-1.947-1.127c-1.689,3.176-4.66,5.379-8.35,5.379c-5.48,0-9.629-3.996-9.475-9.988H996.173z
		 M950.534,36.085v42.26h2.305V66.666c0-4.815,0.973-10.347,6.914-10.347c5.174,0,5.688,3.482,5.688,7.734v14.291h2.305V64.054
		c0-6.096-1.691-9.887-7.787-9.887c-3.072,0-5.635,1.588-7.018,4.201h-0.102V36.085H950.534z M942.39,56.831h4.148V54.68h-4.148
		v-8.452h-2.307v8.452h-2.611v2.151h2.611v21.514h2.307V56.831z"/>
	<polygon points="855.493,195.691 761.153,195.691 761.153,66.651 914.892,66.651 914.892,62.651 757.153,62.651 757.153,199.691 
		855.493,199.691 	"/>
	<polygon points="1020.755,66.651 1172.493,66.651 1172.493,195.691 1078.153,195.691 1078.153,199.691 1176.493,199.691 
		1176.493,62.651 1020.755,62.651 	"/>
	<polygon points="1030.925,52.479 1030.925,76.824 1018.753,64.653 	"/>
	<path fill="#9C1D20" d="M1231.889,83.603c-0.45-0.153-0.851-0.377-1.201-0.672c-0.352-0.296-0.631-0.646-0.84-1.05
		c-0.208-0.404-0.312-0.868-0.312-1.393c0-0.809,0.247-1.443,0.741-1.902c0.493-0.458,1.124-0.808,1.893-1.049
		c0.768-0.24,1.618-0.42,2.551-0.54c0.933-0.121,1.838-0.257,2.716-0.41c0.285-0.044,0.614-0.12,0.987-0.229
		s0.625-0.284,0.757-0.524h0.066v2.688c0,0.831-0.16,1.574-0.478,2.229c-0.318,0.656-0.746,1.214-1.284,1.672
		c-0.538,0.459-1.168,0.809-1.893,1.049c-0.724,0.241-1.481,0.36-2.271,0.36C1232.815,83.832,1232.338,83.755,1231.889,83.603z
		 M1235.296,85.346c0.614-0.154,1.157-0.373,1.629-0.658s0.899-0.642,1.284-1.07c0.384-0.428,0.762-0.916,1.136-1.465h0.065
		c0,0.439,0.027,0.84,0.082,1.202c0.055,0.361,0.17,0.675,0.346,0.938c0.176,0.264,0.423,0.467,0.741,0.609
		c0.317,0.143,0.74,0.214,1.268,0.214c0.284,0,0.521-0.011,0.707-0.033c0.187-0.021,0.4-0.055,0.642-0.099V83.24
		c-0.176,0.088-0.395,0.132-0.658,0.132c-0.812,0-1.218-0.417-1.218-1.251v-9.02c0-1.141-0.187-2.068-0.56-2.781
		s-0.855-1.268-1.448-1.662c-0.593-0.396-1.262-0.664-2.008-0.807s-1.492-0.214-2.238-0.214c-1.976,0-3.583,0.45-4.822,1.35
		c-1.24,0.899-1.926,2.348-2.058,4.345h2.074c0.043-1.383,0.482-2.387,1.316-3.012c0.834-0.626,1.909-0.938,3.226-0.938
		c0.614,0,1.19,0.05,1.729,0.148c0.537,0.099,1.009,0.279,1.415,0.543s0.725,0.62,0.955,1.069c0.23,0.45,0.346,1.026,0.346,1.729
		c0,0.461-0.061,0.834-0.182,1.119c-0.12,0.285-0.291,0.511-0.51,0.675c-0.22,0.165-0.5,0.28-0.84,0.346s-0.719,0.121-1.136,0.165
		c-1.119,0.131-2.222,0.269-3.308,0.411s-2.063,0.39-2.93,0.74c-0.867,0.352-1.563,0.861-2.09,1.531
		c-0.527,0.669-0.79,1.596-0.79,2.781c0,0.855,0.147,1.597,0.444,2.222c0.296,0.626,0.702,1.142,1.218,1.547
		c0.516,0.406,1.119,0.703,1.811,0.889c0.691,0.187,1.432,0.28,2.222,0.28C1233.968,85.577,1234.681,85.5,1235.296,85.346z
		 M1225.388,68.13v1.745h-3.456v11.455c0,0.68,0.093,1.213,0.28,1.596c0.186,0.385,0.652,0.599,1.398,0.643
		c0.593,0,1.186-0.033,1.777-0.099v1.744c-0.308,0-0.614,0.011-0.921,0.033c-0.308,0.021-0.615,0.033-0.922,0.033
		c-1.383,0-2.349-0.269-2.896-0.807c-0.549-0.538-0.812-1.531-0.79-2.979V69.875h-2.963V68.13h2.963v-5.102h2.073v5.102H1225.388z
		 M1202.774,75.438c0.087-0.768,0.268-1.52,0.543-2.255c0.273-0.734,0.642-1.382,1.103-1.941s1.021-1.01,1.679-1.35
		c0.658-0.341,1.415-0.511,2.271-0.511c0.833,0,1.58,0.17,2.238,0.511c0.658,0.34,1.218,0.79,1.679,1.35s0.817,1.201,1.069,1.925
		c0.252,0.725,0.39,1.481,0.412,2.271H1202.774z M1213.356,83.997c1.174-1.054,1.98-2.546,2.42-4.477h-2.074
		c-0.329,1.307-0.922,2.353-1.777,3.136c-0.855,0.784-2.041,1.176-3.555,1.176c-0.987,0-1.833-0.207-2.535-0.622
		c-0.702-0.414-1.283-0.938-1.744-1.572c-0.461-0.633-0.796-1.343-1.004-2.129c-0.209-0.786-0.312-1.562-0.312-2.325h13.067
		c0.044-1.186-0.065-2.354-0.329-3.506s-0.697-2.173-1.3-3.062c-0.604-0.889-1.389-1.607-2.354-2.156
		c-0.966-0.548-2.129-0.822-3.489-0.822c-1.361,0-2.524,0.258-3.489,0.773c-0.966,0.516-1.756,1.196-2.37,2.041
		s-1.07,1.805-1.366,2.88s-0.444,2.173-0.444,3.292c0,1.229,0.148,2.381,0.444,3.456s0.752,2.024,1.366,2.847
		c0.614,0.823,1.404,1.471,2.37,1.942c0.965,0.472,2.128,0.708,3.489,0.708C1210.521,85.577,1212.183,85.05,1213.356,83.997z
		 M1185.724,80.705V67.669c0-1.58,0.361-2.775,1.086-3.588c0.725-0.812,1.975-1.218,3.753-1.218c1.448,0,2.584,0.374,3.406,1.119
		c0.823,0.746,1.234,1.745,1.234,2.996c0,0.855-0.192,1.558-0.576,2.106s-0.883,0.982-1.497,1.3
		c-0.615,0.318-1.295,0.543-2.041,0.675s-1.481,0.197-2.205,0.197v1.745c1.009,0,1.969,0.065,2.88,0.197
		c0.91,0.132,1.706,0.39,2.387,0.773c0.68,0.385,1.223,0.928,1.629,1.63s0.609,1.624,0.609,2.765c0,0.966-0.154,1.777-0.461,2.436
		c-0.308,0.659-0.714,1.202-1.218,1.63c-0.506,0.428-1.087,0.735-1.745,0.922s-1.339,0.279-2.041,0.279
		c-1.339,0-2.469-0.34-3.39-1.021C1186.875,82.11,1186.271,81.473,1185.724,80.705z M1183.649,91.403h2.074V83.24l0.23,0.263
		c0.329,0.352,0.713,0.664,1.151,0.938c0.439,0.274,0.972,0.499,1.597,0.675c0.626,0.176,1.366,0.264,2.222,0.264
		c1.119,0,2.14-0.16,3.062-0.478c0.922-0.318,1.712-0.784,2.37-1.399c0.658-0.613,1.174-1.382,1.547-2.304s0.56-1.986,0.56-3.193
		c0-0.745-0.104-1.47-0.312-2.172c-0.209-0.702-0.521-1.333-0.938-1.893s-0.933-1.021-1.547-1.383s-1.316-0.576-2.106-0.642V71.85
		c1.185-0.264,2.101-0.855,2.748-1.777s0.972-1.975,0.972-3.16c0-0.943-0.165-1.771-0.494-2.485
		c-0.329-0.713-0.796-1.316-1.398-1.811c-0.604-0.493-1.317-0.866-2.14-1.119c-0.823-0.252-1.729-0.378-2.716-0.378
		c-2.129,0-3.808,0.521-5.036,1.563c-1.229,1.042-1.844,2.649-1.844,4.822V91.403z"/>
</g>
<g>
	<path fill="#9C1D20" d="M527.44,385.557v-13.035c0-1.58,0.361-2.775,1.086-3.588c0.725-0.812,1.975-1.218,3.753-1.218
		c1.448,0,2.584,0.374,3.406,1.119c0.823,0.746,1.234,1.745,1.234,2.996c0,0.855-0.192,1.558-0.576,2.106s-0.883,0.982-1.497,1.3
		c-0.615,0.318-1.295,0.543-2.041,0.675s-1.481,0.197-2.205,0.197v1.745c1.009,0,1.969,0.065,2.88,0.197
		c0.91,0.132,1.706,0.39,2.387,0.773c0.68,0.385,1.223,0.928,1.629,1.63s0.609,1.624,0.609,2.765c0,0.966-0.154,1.777-0.461,2.436
		c-0.308,0.659-0.714,1.202-1.218,1.63c-0.506,0.428-1.087,0.735-1.745,0.922s-1.339,0.279-2.041,0.279
		c-1.339,0-2.469-0.34-3.39-1.021C528.592,386.962,527.988,386.326,527.44,385.557z M525.366,396.255h2.074v-8.163l0.23,0.263
		c0.329,0.352,0.713,0.664,1.151,0.938c0.439,0.274,0.972,0.499,1.597,0.675c0.626,0.176,1.366,0.264,2.222,0.264
		c1.119,0,2.14-0.16,3.062-0.478c0.922-0.318,1.712-0.784,2.37-1.399c0.658-0.613,1.174-1.382,1.547-2.304s0.56-1.986,0.56-3.193
		c0-0.745-0.104-1.47-0.312-2.172c-0.209-0.702-0.521-1.333-0.938-1.893s-0.933-1.021-1.547-1.383s-1.316-0.576-2.106-0.642v-0.066
		c1.185-0.264,2.101-0.855,2.748-1.777s0.972-1.975,0.972-3.16c0-0.943-0.165-1.771-0.494-2.485
		c-0.329-0.713-0.796-1.316-1.398-1.811c-0.604-0.493-1.317-0.866-2.14-1.119c-0.823-0.252-1.729-0.378-2.716-0.378
		c-2.129,0-3.808,0.521-5.036,1.563c-1.229,1.042-1.844,2.649-1.844,4.822V396.255z"/>
</g>
<g>
</g>
<g>
</g>
<g>
</g>
<g>
</g>
<g>
</g>
<g>
</g>
</svg>
